<svg width="160" height="36" viewBox="0 0 160 36" fill="none" xmlns="http://www.w3.org/2000/svg">
<g clip-path="url(#clip0_224_1638)">
<path d="M36.3199 20.0618C36.069 22.4836 35.349 24.7636 34.2362 26.8036C33.1235 27.2618 31.7817 27.5781 30.0362 27.5781C26.3708 27.5781 24.418 26.16 22.8471 25.0254C21.5053 24.0545 20.5344 23.3563 18.3744 23.3563C16.2144 23.3563 15.2435 24.0545 13.9017 25.0254C12.3308 26.16 10.378 27.5781 6.71259 27.5781C4.97804 27.5781 3.62532 27.2618 2.51259 26.8036C1.39986 24.7636 0.679864 22.4836 0.428955 20.0618C1.11623 20.4436 1.69441 20.8691 2.23986 21.2618C3.58168 22.2327 4.54168 22.9309 6.71259 22.9309C8.87259 22.9309 9.8435 22.2327 11.1853 21.2618C12.7562 20.1272 14.709 18.72 18.3744 18.72C22.0399 18.72 23.9926 20.1272 25.5635 21.2618C26.9053 22.2327 27.8762 22.9309 30.0362 22.9309C32.1962 22.9309 33.1671 22.2327 34.509 21.2618C35.0435 20.8691 35.6326 20.4545 36.3199 20.0618Z" fill="#4AA4F4"/>
<path d="M29.8508 32.1382C28.2253 33.48 26.3708 34.5381 24.3417 35.2472C23.7962 34.92 23.3053 34.56 22.858 34.2327C21.5162 33.2618 20.5453 32.5636 18.3853 32.5636C16.2253 32.5636 15.2544 33.2618 13.9126 34.2327C13.4544 34.56 12.9744 34.9091 12.418 35.2472C10.3889 34.5381 8.53439 33.48 6.90894 32.1382C8.93803 32.1054 9.88712 31.4181 11.1853 30.469C12.7562 29.3345 14.7089 27.9272 18.3744 27.9272C22.0398 27.9272 23.9926 29.3345 25.5635 30.469C26.8617 31.4181 27.8108 32.0945 29.8508 32.1382Z" fill="#4AA4F4"/>
<path d="M18.3746 0.185547C27.8294 0.185547 35.5836 7.46021 36.3458 16.7183H30.6226C29.8833 10.6085 24.685 5.88009 18.3746 5.88009C12.0642 5.88009 6.86579 10.6085 6.12649 16.7183H0.40332C1.16552 7.46021 8.91969 0.185547 18.3746 0.185547Z" fill="#060D3F"/>
</g>
<path d="M64.21 11.365V13.615H60.5V25.275H57.71V13.615H54V11.365H64.21Z" fill="#060D3F"/>
<path d="M75.9298 20.5949H67.8598C67.9298 21.3949 68.2098 22.0149 68.6998 22.4649C69.1898 22.9149 69.7998 23.1449 70.5098 23.1449C71.5498 23.1449 72.2798 22.6949 72.7198 21.8049H75.7298C75.4098 22.8649 74.7998 23.7449 73.8998 24.4249C72.9998 25.1049 71.8898 25.4549 70.5698 25.4549C69.5098 25.4549 68.5498 25.2149 67.7098 24.7449C66.8698 24.2749 66.2098 23.6049 65.7398 22.7449C65.2698 21.8849 65.0298 20.8849 65.0298 19.7549C65.0298 18.6149 65.2598 17.6049 65.7298 16.7449C66.1998 15.8849 66.8498 15.2149 67.6798 14.7549C68.5198 14.2849 69.4798 14.0549 70.5698 14.0549C71.6198 14.0549 72.5598 14.2849 73.3898 14.7349C74.2198 15.1849 74.8698 15.8249 75.3198 16.6549C75.7698 17.4849 76.0098 18.4349 76.0098 19.5149C76.0098 19.9149 75.9898 20.2749 75.9298 20.5949ZM73.1198 18.7249C73.1098 18.0049 72.8498 17.4349 72.3398 17.0049C71.8298 16.5749 71.2198 16.3549 70.4898 16.3549C69.7998 16.3549 69.2198 16.5649 68.7498 16.9849C68.2798 17.4049 67.9898 17.9849 67.8798 18.7249H73.1198Z" fill="#060D3F"/>
<path d="M86.8601 15.325C87.6701 16.155 88.0801 17.315 88.0801 18.805V25.285H85.2901V19.185C85.2901 18.305 85.0701 17.635 84.6301 17.165C84.1901 16.695 83.5901 16.455 82.8401 16.455C82.0701 16.455 81.4601 16.695 81.0201 17.165C80.5701 17.635 80.3501 18.315 80.3501 19.185V25.285H77.5601V14.245H80.3501V15.625C80.7201 15.145 81.2001 14.775 81.7801 14.495C82.3601 14.225 82.9901 14.085 83.6801 14.085C84.9901 14.075 86.0501 14.495 86.8601 15.325Z" fill="#060D3F"/>
<path d="M92.0199 24.9749C91.2999 24.6449 90.7299 24.2049 90.3199 23.6449C89.8999 23.0849 89.6699 22.4649 89.6299 21.7949H92.4399C92.4899 22.2249 92.6999 22.5749 93.0699 22.8549C93.4399 23.1349 93.8899 23.2749 94.4399 23.2749C94.9699 23.2749 95.3899 23.1649 95.6899 22.9549C95.9899 22.7449 96.1399 22.4749 96.1399 22.1349C96.1399 21.7749 95.9599 21.5049 95.5899 21.3249C95.2199 21.1449 94.6399 20.9449 93.8499 20.7349C93.0299 20.5349 92.3499 20.3249 91.8299 20.1149C91.2999 19.9049 90.8499 19.5749 90.4699 19.1349C90.0899 18.6949 89.8999 18.1049 89.8999 17.3649C89.8999 16.7549 90.0799 16.1949 90.4299 15.6949C90.7799 15.1949 91.2899 14.7949 91.9499 14.4949C92.6099 14.2049 93.3799 14.0549 94.2699 14.0549C95.5899 14.0549 96.6399 14.3849 97.4199 15.0449C98.1999 15.7049 98.6399 16.5849 98.7199 17.7049H96.0499C96.0099 17.2649 95.8299 16.9149 95.4999 16.6549C95.1699 16.3949 94.7399 16.2649 94.1899 16.2649C93.6799 16.2649 93.2999 16.3549 93.0199 16.5449C92.7499 16.7349 92.6099 16.9949 92.6099 17.3249C92.6099 17.6949 92.7999 17.9749 93.1699 18.1749C93.5399 18.3649 94.1199 18.5649 94.8999 18.7649C95.6999 18.9649 96.3599 19.1749 96.8699 19.3849C97.3899 19.5949 97.8399 19.9249 98.2199 20.3749C98.5999 20.8249 98.7899 21.4049 98.8099 22.1349C98.8099 22.7749 98.6299 23.3449 98.2799 23.8449C97.9299 24.3549 97.4199 24.7449 96.7599 25.0349C96.0999 25.3249 95.3299 25.4649 94.4599 25.4649C93.5499 25.4549 92.7399 25.2949 92.0199 24.9749Z" fill="#060D3F"/>
<path d="M102.63 24.7549C101.78 24.2849 101.11 23.6149 100.63 22.7549C100.14 21.8949 99.8999 20.8949 99.8999 19.7649C99.8999 18.6349 100.15 17.6349 100.65 16.7749C101.15 15.9149 101.83 15.2449 102.69 14.7749C103.55 14.3049 104.52 14.0649 105.58 14.0649C106.64 14.0649 107.61 14.3049 108.47 14.7749C109.33 15.2449 110.01 15.9149 110.51 16.7749C111.01 17.6349 111.26 18.6349 111.26 19.7649C111.26 20.8949 111 21.8949 110.49 22.7549C109.98 23.6149 109.29 24.2849 108.42 24.7549C107.55 25.2249 106.58 25.4649 105.5 25.4649C104.43 25.4549 103.48 25.2249 102.63 24.7549ZM106.92 22.6549C107.36 22.4049 107.72 22.0449 107.99 21.5449C108.26 21.0549 108.39 20.4549 108.39 19.7549C108.39 18.7049 108.11 17.8949 107.56 17.3349C107.01 16.7749 106.33 16.4849 105.54 16.4849C104.75 16.4849 104.07 16.7649 103.54 17.3349C103 17.8949 102.73 18.7049 102.73 19.7549C102.73 20.8049 102.99 21.6149 103.52 22.1749C104.04 22.735 104.71 23.0249 105.5 23.0249C106 23.0249 106.48 22.9049 106.92 22.6549Z" fill="#060D3F"/>
<path d="M117.01 14.575C117.59 14.245 118.25 14.075 118.99 14.075V17.005H118.25C117.37 17.005 116.71 17.215 116.27 17.625C115.82 18.035 115.6 18.7549 115.6 19.7749V25.2749H112.81V14.2349H115.6V15.945C115.96 15.365 116.43 14.905 117.01 14.575Z" fill="#060D3F"/>
<path d="M123.16 10.525V25.275H120.37V10.525H123.16Z" fill="#060D3F"/>
<path d="M125.36 16.7449C125.81 15.8849 126.41 15.2149 127.17 14.7549C127.93 14.2849 128.79 14.0549 129.73 14.0549C130.55 14.0549 131.27 14.2249 131.89 14.5549C132.51 14.8849 133 15.3049 133.38 15.8149V14.2449H136.19V25.2849H133.38V23.6749C133.02 24.1949 132.53 24.6249 131.89 24.9649C131.25 25.3049 130.53 25.4749 129.71 25.4749C128.78 25.4749 127.93 25.2349 127.17 24.7549C126.41 24.2749 125.8 23.6049 125.36 22.7349C124.91 21.8649 124.69 20.8649 124.69 19.7349C124.7 18.6049 124.92 17.6149 125.36 16.7449ZM132.99 18.0149C132.72 17.5349 132.37 17.1549 131.91 16.8949C131.46 16.6349 130.97 16.5049 130.45 16.5049C129.93 16.5049 129.45 16.6349 129.01 16.8849C128.57 17.1349 128.22 17.5049 127.94 17.9949C127.67 18.4849 127.53 19.0549 127.53 19.7149C127.53 20.3749 127.67 20.9649 127.94 21.4549C128.21 21.9549 128.57 22.3349 129.02 22.6049C129.47 22.8749 129.94 23.0049 130.45 23.0049C130.97 23.0049 131.45 22.8749 131.91 22.6149C132.36 22.3549 132.72 21.9849 132.99 21.4949C133.26 21.0049 133.39 20.4249 133.39 19.7549C133.39 19.0849 133.25 18.4949 132.99 18.0149Z" fill="#060D3F"/>
<path d="M144.97 25.275L141.22 20.575V25.275H138.43V10.525H141.22V18.915L144.93 14.235H148.56L143.7 19.775L148.6 25.275H144.97Z" fill="#060D3F"/>
<path d="M159.76 20.5949H151.69C151.76 21.3949 152.04 22.0149 152.53 22.4649C153.02 22.9149 153.63 23.1449 154.34 23.1449C155.38 23.1449 156.11 22.6949 156.55 21.8049H159.56C159.24 22.8649 158.63 23.7449 157.73 24.4249C156.83 25.1049 155.72 25.4549 154.4 25.4549C153.34 25.4549 152.38 25.2149 151.54 24.7449C150.7 24.2749 150.04 23.6049 149.57 22.7449C149.1 21.8849 148.86 20.8849 148.86 19.7549C148.86 18.6149 149.09 17.6049 149.56 16.7449C150.03 15.8849 150.68 15.2149 151.51 14.7549C152.35 14.2849 153.31 14.0549 154.4 14.0549C155.45 14.0549 156.39 14.2849 157.22 14.7349C158.05 15.1849 158.7 15.8249 159.15 16.6549C159.6 17.4849 159.84 18.4349 159.84 19.5149C159.84 19.9149 159.81 20.2749 159.76 20.5949ZM156.95 18.7249C156.94 18.0049 156.68 17.4349 156.17 17.0049C155.66 16.5749 155.05 16.3549 154.32 16.3549C153.63 16.3549 153.05 16.5649 152.58 16.9849C152.11 17.4049 151.82 17.9849 151.71 18.7249H156.95Z" fill="#060D3F"/>
<defs>
<clipPath id="clip0_224_1638">
<rect width="36" height="36" fill="white" transform="translate(0.341797)"/>
</clipPath>
</defs>
</svg>
