<?xml version="1.0" encoding="UTF-8"?>
<svg id="Layer_1" data-name="Layer 1" xmlns="http://www.w3.org/2000/svg" xmlns:xlink="http://www.w3.org/1999/xlink" viewBox="0 0 160 36">
  <defs>
    <style>
      .cls-1 {
        fill: none;
      }

      .cls-1, .cls-2 {
        stroke-width: 0px;
      }

      .cls-3 {
        clip-path: url(#clippath);
      }

      .cls-2 {
        fill: #fff;
      }
    </style>
    <clipPath id="clippath">
      <rect class="cls-1" x=".34" width="36" height="36"/>
    </clipPath>
  </defs>
  <g class="cls-3">
    <g>
      <path class="cls-2" d="M36.32,20.06c-.25,2.42-.97,4.7-2.08,6.74-1.11.46-2.45.77-4.2.77-3.67,0-5.62-1.42-7.19-2.55-1.34-.97-2.31-1.67-4.47-1.67s-3.13.7-4.47,1.67c-1.57,1.13-3.52,2.55-7.19,2.55-1.73,0-3.09-.32-4.2-.77-1.11-2.04-1.83-4.32-2.08-6.74.69.38,1.27.81,1.81,1.2,1.34.97,2.3,1.67,4.47,1.67s3.13-.7,4.47-1.67c1.57-1.13,3.52-2.54,7.19-2.54s5.62,1.41,7.19,2.54c1.34.97,2.31,1.67,4.47,1.67s3.13-.7,4.47-1.67c.53-.39,1.12-.81,1.81-1.2Z"/>
      <path class="cls-2" d="M29.85,32.14c-1.63,1.34-3.48,2.4-5.51,3.11-.55-.33-1.04-.69-1.48-1.01-1.34-.97-2.31-1.67-4.47-1.67s-3.13.7-4.47,1.67c-.46.33-.94.68-1.49,1.01-2.03-.71-3.88-1.77-5.51-3.11,2.03-.03,2.98-.72,4.28-1.67,1.57-1.13,3.52-2.54,7.19-2.54s5.62,1.41,7.19,2.54c1.3.95,2.25,1.63,4.29,1.67Z"/>
      <path class="cls-2" d="M18.37.19c9.45,0,17.21,7.27,17.97,16.53h-5.72c-.74-6.11-5.94-10.84-12.25-10.84s-11.51,4.73-12.25,10.84H.4C1.17,7.46,8.92.19,18.37.19Z"/>
    </g>
  </g>
  <path class="cls-2" d="M64.21,11.36v2.25h-3.71v11.66h-2.79v-11.66h-3.71v-2.25h10.21Z"/>
  <path class="cls-2" d="M75.93,20.59h-8.07c.07.8.35,1.42.84,1.87.49.45,1.1.68,1.81.68,1.04,0,1.77-.45,2.21-1.34h3.01c-.32,1.06-.93,1.94-1.83,2.62-.9.68-2.01,1.03-3.33,1.03-1.06,0-2.02-.24-2.86-.71-.84-.47-1.5-1.14-1.97-2s-.71-1.86-.71-2.99.23-2.15.7-3.01c.47-.86,1.12-1.53,1.95-1.99.84-.47,1.8-.7,2.89-.7s1.99.23,2.82.68c.83.45,1.48,1.09,1.93,1.92.45.83.69,1.78.69,2.86,0,.4-.02.76-.08,1.08ZM73.12,18.72c0-.72-.27-1.29-.78-1.72-.51-.43-1.12-.65-1.85-.65-.69,0-1.27.21-1.74.63s-.76,1-.87,1.74h5.24Z"/>
  <path class="cls-2" d="M86.86,15.32c.81.83,1.22,1.99,1.22,3.48v6.48h-2.79v-6.1c0-.88-.22-1.55-.66-2.02-.44-.47-1.04-.71-1.79-.71s-1.38.24-1.82.71c-.45.47-.67,1.15-.67,2.02v6.1h-2.79v-11.04h2.79v1.38c.37-.48.85-.85,1.43-1.13.58-.27,1.21-.41,1.9-.41,1.31-.01,2.37.41,3.18,1.24Z"/>
  <path class="cls-2" d="M92.02,24.97c-.72-.33-1.29-.77-1.7-1.33-.42-.56-.65-1.18-.69-1.85h2.81c.05.43.26.78.63,1.06.37.28.82.42,1.37.42s.95-.11,1.25-.32c.3-.21.45-.48.45-.82,0-.36-.18-.63-.55-.81-.37-.18-.95-.38-1.74-.59-.82-.2-1.5-.41-2.02-.62-.53-.21-.98-.54-1.36-.98-.38-.44-.57-1.03-.57-1.77,0-.61.18-1.17.53-1.67.35-.5.86-.9,1.52-1.2.66-.29,1.43-.44,2.32-.44,1.32,0,2.37.33,3.15.99s1.22,1.54,1.3,2.66h-2.67c-.04-.44-.22-.79-.55-1.05s-.76-.39-1.31-.39c-.51,0-.89.09-1.17.28-.27.19-.41.45-.41.78,0,.37.19.65.56.85.37.19.95.39,1.73.59.8.2,1.46.41,1.97.62.52.21.97.54,1.35.99.38.45.57,1.03.59,1.76,0,.64-.18,1.21-.53,1.71-.35.51-.86.9-1.52,1.19-.66.29-1.43.43-2.3.43-.91,0-1.72-.17-2.44-.49Z"/>
  <path class="cls-2" d="M102.63,24.75c-.85-.47-1.52-1.14-2-2-.49-.86-.73-1.86-.73-2.99s.25-2.13.75-2.99c.5-.86,1.18-1.53,2.04-2,.86-.47,1.83-.71,2.89-.71s2.03.24,2.89.71c.86.47,1.54,1.14,2.04,2,.5.86.75,1.86.75,2.99s-.26,2.13-.77,2.99c-.51.86-1.2,1.53-2.07,2-.87.47-1.84.71-2.92.71-1.07,0-2.02-.24-2.87-.71ZM106.92,22.65c.44-.25.8-.61,1.07-1.11.27-.49.4-1.09.4-1.79,0-1.05-.28-1.86-.83-2.42-.55-.56-1.23-.85-2.02-.85s-1.47.28-2,.85c-.54.56-.81,1.37-.81,2.42s.26,1.86.79,2.42c.52.56,1.19.85,1.98.85.5,0,.98-.12,1.42-.37Z"/>
  <path class="cls-2" d="M117.01,14.57c.58-.33,1.24-.5,1.98-.5v2.93h-.74c-.88,0-1.54.21-1.98.62-.45.41-.67,1.13-.67,2.15v5.5h-2.79v-11.04h2.79v1.71c.36-.58.83-1.04,1.41-1.37Z"/>
  <path class="cls-2" d="M123.16,10.52v14.75h-2.79v-14.75h2.79Z"/>
  <path class="cls-2" d="M125.36,16.74c.45-.86,1.05-1.53,1.81-1.99.76-.47,1.62-.7,2.56-.7.82,0,1.54.17,2.16.5s1.11.75,1.49,1.26v-1.57h2.81v11.04h-2.81v-1.61c-.36.52-.85.95-1.49,1.29-.64.34-1.36.51-2.18.51-.93,0-1.78-.24-2.54-.72-.76-.48-1.37-1.15-1.81-2.02-.45-.87-.67-1.87-.67-3,0-1.13.23-2.12.67-2.99ZM132.99,18.01c-.27-.48-.62-.86-1.08-1.12-.45-.26-.94-.39-1.46-.39s-1,.13-1.44.38c-.44.25-.79.62-1.07,1.11-.27.49-.41,1.06-.41,1.72s.14,1.25.41,1.74c.27.5.63.88,1.08,1.15s.92.4,1.43.4,1-.13,1.46-.39c.45-.26.81-.63,1.08-1.12.27-.49.4-1.07.4-1.74s-.14-1.26-.4-1.74Z"/>
  <path class="cls-2" d="M144.97,25.27l-3.75-4.7v4.7h-2.79v-14.75h2.79v8.39l3.71-4.68h3.63l-4.86,5.54,4.9,5.5h-3.63Z"/>
  <path class="cls-2" d="M159.76,20.59h-8.07c.07.8.35,1.42.84,1.87.49.45,1.1.68,1.81.68,1.04,0,1.77-.45,2.21-1.34h3.01c-.32,1.06-.93,1.94-1.83,2.62-.9.68-2.01,1.03-3.33,1.03-1.06,0-2.02-.24-2.86-.71-.84-.47-1.5-1.14-1.97-2-.47-.86-.71-1.86-.71-2.99s.23-2.15.7-3.01c.47-.86,1.12-1.53,1.95-1.99.84-.47,1.8-.7,2.89-.7s1.99.23,2.82.68c.83.45,1.48,1.09,1.93,1.92.45.83.69,1.78.69,2.86,0,.4-.03.76-.08,1.08ZM156.95,18.72c0-.72-.27-1.29-.78-1.72s-1.12-.65-1.85-.65c-.69,0-1.27.21-1.74.63s-.76,1-.87,1.74h5.24Z"/>
</svg>